<svg version="1.1" xmlns="http://www.w3.org/2000/svg" viewBox="0 0 16 16">
	<defs>
		<style>
			.i-color {
				fill: #000;
				fill-rule: evenodd;
			}
		</style>
	</defs>

	<path id="file_type_toit.svg" class="i-color" transform="translate(0 -1)"
		d="M0.18,3.28c0.06-0.27,0.3-0.44,0.57-0.44c0.05,0,0.09,0,0.14,0.02l6,1.44l0,0l0,0C6.93,4.3,6.96,4.31,7,4.32
		c0.65,0.17,1.36,0.17,2.01,0C9.04,4.31,9.07,4.3,9.11,4.3l0,0l0,0l6-1.44c0.05-0.01,0.1-0.02,0.14-0.02c0.26,0,0.5,0.17,0.57,0.44
		c0.07,0.31-0.12,0.62-0.42,0.69L9.39,5.41C9.36,5.41,9.34,5.42,9.31,5.43c-0.44,0.13-0.74,0.54-0.74,1v0.73
		c0,0.35,0.1,0.69,0.29,0.98l2.29,3.53c0.27,0.42,0.86,0.47,1.2,0.1l2.5-2.69c0.22-0.23,0.58-0.25,0.81-0.03
		c0.23,0.22,0.25,0.58,0.03,0.81l-2.5,2.69c-0.85,0.91-2.33,0.78-3-0.26L8.11,9.08C8.06,9,7.94,9,7.89,9.08l-2.08,3.21
		c-0.68,1.04-2.15,1.17-3,0.26l-2.5-2.69C0.1,9.63,0.11,9.27,0.34,9.05c0.23-0.22,0.59-0.2,0.81,0.03l2.5,2.69
		c0.34,0.36,0.93,0.31,1.2-0.1l2.29-3.53C7.33,7.84,7.43,7.5,7.43,7.16V6.42c0-0.46-0.3-0.86-0.74-1C6.66,5.42,6.64,5.41,6.61,5.41
		L0.6,3.97C0.29,3.9,0.1,3.59,0.18,3.28z"
	/>
</svg>
