<svg xmlns="http://www.w3.org/2000/svg" width="16" height="16" version="1.1" viewBox="0 0 16 16">
  <defs>
    <style>
      .i-color {
        fill: #000;
        fill-rule: evenodd;
      }
    </style>
  </defs>
  <path id="file_type_arduino.svg" class="i-color" d="M11.5,4.9C9.9,4.9,8.7,6.1,8,7C7.4,6.1,6.1,4.9,4.5,4.9C2.8,4.9,1.4,6.3,1.4,8
  s1.4,3.1,3.1,3.1C6.1,11.1,7.3,9.8,8,9c0.7,0.8,1.9,2.1,3.5,2.1c1.7,0,3.1-1.4,3.1-3.1S13.2,4.9,11.5,4.9z M4.5,9.9
  C3.4,9.9,2.6,9.1,2.6,8s0.8-1.9,1.9-1.9c1.3,0,2.4,1.3,2.8,1.9C6.8,8.6,5.8,9.9,4.5,9.9z M11.5,9.9c-1.3,0-2.4-1.3-2.8-1.9
  c0.5-0.6,1.5-1.9,2.8-1.9c1.1,0,1.9,0.8,1.9,1.9S12.6,9.9,11.5,9.9z M3.8,7.6h1.8v0.6H3.8V7.6z M12.2,7.6h-0.6V7H11v0.6h-0.6v0.6H11
  v0.6h0.6V8.2h0.6C12.2,8.2,12.2,7.6,12.2,7.6z"/>
</svg>
