<svg xmlns="http://www.w3.org/2000/svg" width="16" height="16" viewBox="0 0 16 16">
  <defs>
    <style>
      .i-color {
        fill: #000;
        fill-rule: evenodd;
      }
    </style>
  </defs>
  <g transform="matrix(0.014,0,0,0.014,1,1)">
      <path id="file_type_css.svg" class="i-color" d="M0,0L840,0C927.773,-0 1000,72.227 1000,160L1000,840C1000,927.773 927.773,1000 840,1000L160,1000C72.227,1000 0,927.773 0,840L0,0ZM592.14,920L592.13,919.98C690.84,924.15 718.42,814.87 678.22,743.33C664.74,719.85 627.56,700.45 598.32,689.09C575.74,678.7 566.05,668.5 565.84,643.64C565.84,620.23 575.63,608.52 595.22,608.52C606.21,608.52 613.69,612.14 617.64,619.37C623.28,627.91 624.65,651.34 624.08,665.86L691.1,665.86C692.73,630.53 684.32,592.14 665.07,572.63C633.86,534.78 552.43,536.48 521.25,573.4C489.16,603.32 487.04,677.16 509.91,710.8C520.05,725.96 536.63,739.04 559.66,750.06C575.79,758.12 606.33,770.08 614.82,783.63C626.97,797.7 625.38,834.06 616.88,846.65C612.41,853.54 604.67,856.98 593.68,856.98C569.04,858.88 558.76,831.63 560.69,801.71L491.1,801.71C489.13,870.34 520.97,920.98 592.14,920ZM816.9,920L816.89,919.98C915.6,924.15 943.18,814.87 902.98,743.33C889.5,719.85 852.32,700.45 823.08,689.09C800.5,678.7 790.81,668.5 790.6,643.64C790.6,620.23 800.39,608.52 819.98,608.52C830.97,608.52 838.45,612.14 842.4,619.37C848.04,627.91 849.41,651.34 848.84,665.86L915.86,665.86C917.49,630.53 909.08,592.14 889.83,572.63C858.62,534.78 777.19,536.48 746.01,573.4C713.92,603.32 711.8,677.16 734.67,710.8C744.81,725.96 761.39,739.04 784.42,750.06C800.55,758.12 831.09,770.08 839.58,783.63C851.73,797.7 850.14,834.06 841.64,846.65C837.17,853.54 829.43,856.98 818.44,856.98C793.8,858.88 783.52,831.63 785.45,801.71L715.86,801.71C713.89,870.34 745.73,920.98 816.9,920ZM358.09,920L358.1,920C428.484,920.865 469.84,871.777 464.8,801.71L391.08,801.71C391.66,815.45 390.54,834.45 383.35,843.03C378.2,850.26 370.63,853.88 360.67,853.88C339.36,853.54 328.71,838.04 328.71,807.39L328.71,661.21C328.71,645.03 331.03,632.8 335.67,624.54C343.22,609.31 371.77,607.59 382.58,622.22C390.9,630.29 391.65,651.72 391.09,665.87L464.81,665.87C466.73,629.86 458.65,591.27 437.23,572.38C402.47,535.59 320.13,537.67 284.64,571.86C264.88,589.42 255,615.08 255,648.82L255,817.21C254.24,883.767 293.866,919.936 358.09,920Z"/>
  </g>
</svg>
