<svg xmlns="http://www.w3.org/2000/svg" width="16" height="16" viewBox="0 0 16 16">
  <defs>
    <style>
      .i-color {
        fill: #000;
        fill-rule: evenodd;
      }
    </style>
  </defs>
<path id="file_type_fixedform-fortran.svg" class="i-color" d="M585 1844 c-366 -23 -463 -72 -519 -266 -14 -49 -16 -130 -16 -628 0 -498 2 -579 16 -628 49 -169 127 -224 365 -254 144 -18 894 -18 1038 0 238 30 316 85 365 254 14 49 16 130 16 628 0 498 -2 579 -16 628 -48 165 -128 223 -349 252 -78 11 -779 21 -900 14z m1048 -226 c5 -16 -3 -518 -9 -536 -3 -9 -24 -12 -76 -10 l-73 3 -8 65 c-20 174 -42 237 -97 283 -17 15 -47 30 -68 34 -47 10 -419 9 -429 -1 -5 -4 -9 -97 -11 -207 l-3 -199 68 0 c129 0 173 42 182 177 l6 88 71 3 c62 2 72 0 75 -15 2 -10 2 -173 -1 -363 l-5 -345 -72 -3 c-40 -2 -73 -2 -74 0 0 2 -4 51 -8 109 -12 153 -35 180 -163 187 l-78 5 0 -192 c0 -269 6 -280 150 -289 l91 -5 -3 -76 -3 -76 -100 -6 c-190 -12 -630 -10 -643 3 -14 14 -16 96 -3 131 9 22 16 25 91 29 72 4 85 8 108 32 l27 26 3 470 3 470 -25 25 c-23 23 -33 25 -105 25 -44 0 -83 4 -86 10 -10 17 -18 107 -11 134 l6 26 634 0 c499 0 635 -3 639 -12z"/>
</svg>