<svg xmlns="http://www.w3.org/2000/svg" width="16" height="16" viewBox="0 0 16 16">
  <defs>
    <style>
      .i-color {
        fill: #000;
        fill-rule: evenodd;
      }
    </style>
  </defs>
  <g transform="matrix(0.535723,0,0,0.535723,-0.571698,-0.572098)">
      <path id="file_type_ejs.svg" class="i-color" d="M2,17.672L2,14.328L13.86,8.128L13.86,11.2L5.1,15.939L13.862,20.774L13.862,23.874L2,17.672ZM29.814,8.792L19.465,23.229L15.912,23.229L26.281,8.791L29.814,8.792ZM26.947,21.5C27.184,21.505 27.412,21.402 27.566,21.222C27.738,21.018 27.826,20.756 27.814,20.49C27.824,20.217 27.736,19.95 27.566,19.737C27.421,19.548 27.196,19.438 26.957,19.438C26.719,19.438 26.494,19.548 26.349,19.737C26.179,19.95 26.091,20.217 26.101,20.49C26.088,20.755 26.173,21.015 26.338,21.222C26.487,21.403 26.712,21.506 26.947,21.5ZM29.133,22.542C27.903,23.654 26.006,23.65 24.781,22.532C24.229,21.993 23.917,21.254 23.917,20.482C23.917,19.71 24.229,18.971 24.781,18.432C26.006,17.311 27.908,17.311 29.133,18.432C29.696,18.965 30.011,19.711 30,20.486C30.015,21.261 29.7,22.008 29.134,22.538L29.133,22.542ZM18.821,13.061C19.058,13.066 19.286,12.963 19.44,12.783C19.612,12.579 19.7,12.317 19.688,12.051C19.698,11.778 19.61,11.511 19.44,11.298C19.294,11.11 19.069,10.999 18.831,10.999C18.594,10.999 18.369,11.11 18.223,11.298C18.053,11.511 17.965,11.778 17.975,12.051C17.962,12.316 18.047,12.576 18.212,12.783C18.361,12.964 18.586,13.067 18.821,13.061ZM21.007,14.1C19.777,15.212 17.88,15.208 16.655,14.09C16.103,13.551 15.791,12.812 15.791,12.04C15.791,11.268 16.103,10.529 16.655,9.99C17.88,8.869 19.782,8.869 21.007,9.99C21.572,10.525 21.887,11.275 21.873,12.053C21.886,12.827 21.572,13.571 21.007,14.1Z" style="fill-rule:nonzero;"/>
  </g>
</svg>
