<svg xmlns="http://www.w3.org/2000/svg" width="16" height="16" viewBox="0 0 16 16">
  <defs>
    <style>
      .i-color {
        fill: #000;
        fill-rule: evenodd;
      }
    </style>
  </defs>
  <path id="file_type_pdf.svg" class="i-color" d="M6.503,0c0,0.755,0,1.51,0,2.259c0.143,0.116,0.29,0.216,0.414,0.34
	c0.12,0.12,0.217,0.263,0.332,0.406c0.832,0,1.675,0,2.528,0c0.399-0.628,0.97-0.981,1.725-0.991
	c0.555-0.007,1.041,0.195,1.426,0.595c0.834,0.865,0.74,2.167-0.126,2.913c-0.901,0.776-2.329,0.616-3.027-0.512
	c-0.844,0-1.691,0-2.536,0C6.726,5.768,6.023,6.133,5.116,5.956C4.3,5.796,3.775,5.275,3.568,4.466
	c-0.19-0.738,0.067-1.643,0.934-2.195c0-0.752,0-1.512,0-2.271C5.169,0,5.836,0,6.503,0z M5.497,5.002
	c0.53,0.032,1.006-0.453,1.011-0.985c0.005-0.559-0.471-1.018-1.003-1.016C4.94,3.004,4.504,3.48,4.5,4.002
	C4.496,4.529,4.956,5.024,5.497,5.002z M11.495,5.002c0.536,0.034,1.009-0.454,1.015-0.981c0.007-0.562-0.469-1.02-0.999-1.02
	c-0.566,0.001-1.003,0.476-1.009,0.996C10.497,4.528,10.957,5.022,11.495,5.002z M5.51,14c-1.011,0-2.004,0-3.016,0
	c0.431-0.422,0.852-0.829,1.268-1.241c0.422-0.417,0.84-0.839,1.26-1.259c0.416-0.416,0.832-0.832,1.248-1.248
	C6.687,9.836,7.102,9.42,7.519,9.003c0.753,0,1.503,0,2.261,0c0.396-0.62,0.959-0.969,1.7-0.987
	c0.555-0.014,1.043,0.184,1.433,0.579c0.826,0.836,0.778,2.13-0.081,2.905c-0.863,0.779-2.336,0.684-3.062-0.49
	c-0.418,0-0.84,0-1.268,0C7.504,12.006,6.503,13.007,5.51,14z M11.5,11.004c0.53,0.032,1.006-0.453,1.011-0.985
	c0.005-0.559-0.471-1.018-1.003-1.016c-0.565,0.003-1.001,0.479-1.005,1C10.499,10.532,10.958,11.027,11.5,11.004z"/>
</svg>
