<?xml version="1.0" encoding="UTF-8"?>
<!-- Generated by Pixelmator Pro 3.3.12 -->
<svg width="800" height="800" viewBox="0 0 800 800" xmlns="http://www.w3.org/2000/svg">
    <path id="Path" fill="#ec5f66" stroke="none" d="M 673.125 693.424988 C 585.775024 652.5 615.150024 364.700012 345.25 207.974976 C 352.225006 144.799988 368.950012 -12.5 199.024994 75 C 171.125 78.200012 122.675003 58.275024 100 120.775024 L 100 123.625 C 422.949982 97.5 2.2 263.25 418.75 646.099976 C 409.425018 650.5 401.899994 637.974976 369.5 648.599976 L 369.149994 649 C 326.100006 677.375 417.474976 668.200012 473 680.849976 C 432.725006 691.274963 333.149994 652.424988 315.5 721.974976 C 337.424988 712.725037 340.5 730.200012 342.399994 748.899963 C 410.676514 716.069336 484.117493 695.296509 559.474976 687.5 C 586.974976 694.625 662.424988 738.724976 687.524963 701.275024 C 687.974976 698.25 680.525024 696.899963 673.125 693.424988 Z"/>
    <path id="path1" fill="#ec5f66" stroke="none" d="M 261.149994 74.25 L 258.125 76.450012 C 256.834503 77.66095 256.079926 79.336365 256.02832 81.105347 C 255.9767 82.874268 256.632294 84.59082 257.850006 85.875 C 258.177032 86.251526 258.555786 86.579834 258.975006 86.849976 C 263.141907 89.47522 268.578918 88.81781 272 85.275024 C 273.466553 84.327881 274.496185 82.836426 274.862 81.129333 C 275.227814 79.422302 274.899658 77.639893 273.950012 76.174988 L 273.700012 75.825012 C 271.799988 72.25 269.625 71.400024 265.199982 72.650024 C 263.825012 73.125 262.5 73.650024 261.149994 74.25 Z"/>
    <path id="path2" fill="#ec5f66" stroke="none" d="M 450 659.200012 C 453.774963 658.174988 457.950012 638.5 454.350006 635.475037 C 463.371643 645.645935 473.674255 654.604004 485 662.125 C 510.575012 687.300049 551.625 661.324951 572.049988 681.099976 C 587.431641 691.318604 603.826843 699.922546 620.975037 706.775024 C 617.5 703 620.25 703.175049 625.450012 706.5 C 622.200012 698.050049 514.924988 577.599976 494.799988 527 C 497.174988 534.324951 454.600006 506.400024 442.899994 491.524994 C 442.199982 492.924988 440.600006 485.25 437.200012 480.674988 C 436.175018 481.925018 432.200012 469.850006 429.699982 462.475006 C 430.625 467.150024 418.149994 449.975006 413.450012 442.024994 C 412.050018 444.274994 395.475006 451.324982 393.225006 449.174988 C 375 439.174988 456.449982 550.825012 396.274994 513.149963 C 413.175018 530.224976 411.625 523.150024 368.899994 491.850006 C 378 503.149994 360.975006 499.649994 330.075012 453.774963 C 334.725006 458.774994 324.625 439.375031 324.625 439.375031 C 323.894409 435.255371 322.78125 431.212891 321.300018 427.299988 C 319.899994 419.299988 315.274994 409.224976 318.300018 411.049988 C 282.200012 372.149994 351.149994 328.550018 336.274994 319.274994 C 333.5 319.274994 335.600006 319.700012 332.5 316.625 C 330.25 316.625 320.799988 323.75 317.825012 310.774994 C 317.975006 314.074982 316.975006 320.924988 314 308.274994 C 313.424988 309.575012 314.375 310.774994 313.25 311.899994 C 307.625 297.5 293.950012 271.900024 282.824982 248.424988 C 278.875 252.299988 279.375 246.525024 278 221.125 C 279.325012 224.725037 272.375 269.150024 273 224.375 C 269.799988 224.549988 275.700012 255.825012 264.424988 229.625 C 260.899994 230.875 256.800018 220.549988 255.899994 200.174988 C 254.699997 215.75 248.650009 204.849976 243.399994 177.099976 C 236.675003 189.799988 203.399994 220.674988 235.074997 367.649994 C 233.750015 359.824982 239.724991 376.174988 253.949997 428.324982 C 254.474991 427.350006 253.399994 426.249969 254.900009 425.050018 C 259.145752 437.065552 264.828644 448.523712 271.825012 459.175018 C 285.424988 475.625 296.700012 511.024994 291.825012 491.099976 C 308.193817 521.701111 329.804779 549.192871 355.675018 572.325012 C 384.912354 603.588867 416.441528 632.627808 450 659.200012 Z"/>
    <path id="path3" fill="#ec5f66" stroke="none" d="M 270.575012 63.924988 C 270.168518 63.701416 269.741547 63.517273 269.300018 63.375 C 263.774994 62.375 258.575012 67.200012 252.949997 64.174988 C 249.324982 66.299988 246.524994 63.275024 243.574997 62.349976 C 241.946228 61.672668 240.093521 61.802368 238.575012 62.700012 C 231.386734 66.957092 224.578262 71.825073 218.225006 77.25 C 215.023987 80.343628 212.673538 84.209412 211.400009 88.474976 C 210.875015 89.674988 210.474991 91.625 212.649994 91.900024 C 218.245575 93.12207 223.99234 93.501282 229.699997 93.025024 C 234.125 92.325012 236.625 89.224976 240.149994 87.5 C 247.105484 83.972473 252.413864 77.875 254.949997 70.5 C 256.549988 66.125 258.975006 66.325012 261.949982 65.5 C 264.924988 64.674988 267.5 65.5 270.575012 63.924988 Z"/>
    <path id="path4" fill="#ec5f66" stroke="none" d="M 258.125 76.450012 L 261.149994 74.25 C 262.389099 74.087708 263.594482 74.73053 264.149994 75.849976 C 265.25 78.349976 266.799988 78.650024 268.975006 77.025024 C 269.799988 76.400024 270.75 75.575012 271.924988 76.349976 C 272.894012 77.103149 273.301086 78.374023 272.950012 79.549988 C 272.812744 82.380615 270.958679 84.839478 268.274994 85.75 C 265.861023 87.077759 262.878265 86.77948 260.774994 85 C 258.524994 82.700012 256.5 80 258.125 76.450012 Z"/>
</svg>
