<svg xmlns="http://www.w3.org/2000/svg" xmlns:xlink="http://www.w3.org/1999/xlink" xmlns:serif="http://www.serif.com/" width="100%" height="100%" viewBox="0 0 16 16" version="1.1" xml:space="preserve" style="fill-rule:evenodd;clip-rule:evenodd;stroke-linejoin:round;stroke-miterlimit:2;">
	<defs>
	  <style>
	    .i-color {
	      fill: #000;
	      fill-rule: evenodd;
	    }
	  </style>
	</defs>
	<path id="file_type_private_key.svg" class="i-color" d="M2,12.01l-0.686,0c-0.721,0 -1.314,-0.593 -1.314,-1.314l0,-1.501c0,-0.149 0.059,-0.292 0.165,-0.398l3.702,-3.702c-0.076,-0.317 -0.115,-0.641 -0.115,-0.967c0,-2.265 1.864,-4.128 4.129,-4.128c1.641,0.004 3.07,0.986 3.73,2.389c0.881,0.414 1.596,1.132 2.007,2.014c1.402,0.663 2.382,2.094 2.382,3.736c0,2.264 -1.863,4.128 -4.128,4.128c-0.322,0 -0.644,-0.038 -0.957,-0.113l-0.7,0.7c-0.105,0.106 -0.249,0.165 -0.398,0.165l-0.563,0l0,0.563c-0,0.149 -0.06,0.292 -0.165,0.398l-0.375,0.375c-0.105,0.106 -0.249,0.165 -0.398,0.165l-0.563,0l0,0.563c-0,0.149 -0.06,0.292 -0.165,0.398l-0.375,0.375c-0.105,0.106 -0.249,0.165 -0.398,0.165l-1.501,0c-0.721,0 -1.314,-0.593 -1.314,-1.314l0,-0.686l0.815,0c0.111,-0 0.22,-0.033 0.311,-0.094l0,0.78c0,0.104 0.084,0.188 0.188,0.188l1.269,0l0.045,-0.045l0,-0.893c0,-0.309 0.254,-0.563 0.563,-0.563l0.893,0l0.045,-0.045l0,-0.893c0,-0.309 0.254,-0.563 0.563,-0.563l0.893,0l0.768,-0.769c0.151,-0.15 0.375,-0.203 0.576,-0.135c0.307,0.103 0.629,0.155 0.953,0.155c1.647,0 3.003,-1.355 3.003,-3.003c0,-0.825 -0.34,-1.576 -0.886,-2.121c0.001,0.036 0.002,0.072 0.002,0.108c0,2.264 -1.863,4.128 -4.128,4.128c-0.322,0 -0.644,-0.038 -0.957,-0.113l-0.7,0.7c-0.105,0.106 -0.249,0.165 -0.398,0.165l-0.563,0l0,0.011l0.292,0l-0.292,0.292l0,0.259c-0,0.149 -0.06,0.292 -0.165,0.398l-0.375,0.375c-0.105,0.106 -0.249,0.165 -0.398,0.165l-0.563,0l0,0.011l0.292,0l-0.292,0.292l0,0.26c-0,0.149 -0.06,0.292 -0.165,0.398l-0.375,0.375c-0.105,0.106 -0.249,0.165 -0.398,0.165l-1.501,0c-0.721,0 -1.314,-0.593 -1.314,-1.314l0,-0.686Zm9.998,-8.002c0.001,0.04 0.002,0.079 0.002,0.119c0,2.264 -1.863,4.128 -4.128,4.128c-0.322,0 -0.644,-0.038 -0.957,-0.113l-0.7,0.7c-0.105,0.106 -0.249,0.165 -0.398,0.165l-0.271,0l-0.292,0.292l0,0.271c-0,0.149 -0.06,0.292 -0.165,0.398l-0.375,0.375c-0.105,0.106 -0.249,0.165 -0.398,0.165l-0.271,0l-0.292,0.292l0,0.271c-0,0.149 -0.06,0.292 -0.165,0.398l-0.375,0.375c-0.027,0.027 -0.056,0.051 -0.087,0.071l0,0.78c0,0.104 0.084,0.188 0.188,0.188l1.269,0l0.045,-0.045l0,-0.893c0,-0.309 0.254,-0.563 0.563,-0.563l0.893,0l0.045,-0.045l0,-0.893c0,-0.309 0.254,-0.563 0.563,-0.563l0.893,0l0.768,-0.769c0.151,-0.15 0.375,-0.203 0.576,-0.135c0.307,0.103 0.629,0.155 0.953,0.155c1.647,0 3.003,-1.355 3.003,-3.003c0,-0.825 -0.34,-1.576 -0.886,-2.121Zm-7.119,0.12c-0.001,0.324 0.052,0.646 0.154,0.953c0.068,0.202 0.015,0.426 -0.136,0.576l-3.771,3.77l0,1.269c0,0.104 0.084,0.188 0.188,0.188l1.269,0l0.045,-0.045l0,-0.893c0,-0.309 0.254,-0.563 0.563,-0.563l0.893,0l0.045,-0.045l0,-0.893c0,-0.309 0.254,-0.563 0.563,-0.563l0.893,0l0.768,-0.769c0.151,-0.15 0.375,-0.203 0.576,-0.135c0.307,0.103 0.629,0.155 0.953,0.155c1.647,0 3.003,-1.355 3.003,-3.003c0,-1.647 -1.355,-3.003 -3.003,-3.003c-1.647,-0 -3.002,1.355 -3.003,3.001Zm3.378,0.375c-0.412,0 -0.751,-0.339 -0.751,-0.751c0,-0.412 0.339,-0.751 0.751,-0.751c0.412,0 0.751,0.339 0.751,0.751c0,0.412 -0.339,0.751 -0.751,0.751Z"/>
</svg>
