<?xml version="1.0" encoding="UTF-8" standalone="no"?><!DOCTYPE svg PUBLIC "-//W3C//DTD SVG 1.1//EN" "http://www.w3.org/Graphics/SVG/1.1/DTD/svg11.dtd"><svg width="100%" height="100%" viewBox="0 0 16 16" version="1.1" xmlns="http://www.w3.org/2000/svg" xmlns:xlink="http://www.w3.org/1999/xlink" xml:space="preserve" xmlns:serif="http://www.serif.com/" style="fill-rule:evenodd;clip-rule:evenodd;stroke-linejoin:round;stroke-miterlimit:2;"><path id="file_type_modern-fortran.svg" d="M4.756,0.021c-3.254,0.205 -4.116,0.643 -4.614,2.375c-0.124,0.438 -0.142,1.161 -0.142,5.608c0,4.447 0.018,5.17 0.142,5.607c0.436,1.509 1.129,2.001 3.245,2.268c1.28,0.161 7.946,0.161 9.226,0c2.116,-0.267 2.809,-0.759 3.245,-2.268c0.124,-0.437 0.142,-1.16 0.142,-5.607c0,-4.447 -0.018,-5.17 -0.142,-5.608c-0.427,-1.473 -1.138,-1.991 -3.102,-2.25c-0.694,-0.098 -6.925,-0.188 -8,-0.125l0,0Zm9.315,2.018c0.045,0.143 -0.027,4.625 -0.08,4.786c-0.027,0.08 -0.213,0.107 -0.675,0.089l-0.649,-0.026l-0.071,-0.581c-0.178,-1.554 -0.374,-2.116 -0.863,-2.527c-0.151,-0.134 -0.417,-0.268 -0.604,-0.304c-0.418,-0.089 -3.725,-0.08 -3.813,0.009c-0.045,0.036 -0.08,0.867 -0.098,1.849l-0.027,1.777l0.605,0c1.146,0 1.537,-0.375 1.617,-1.581l0.054,-0.786l0.631,-0.026c0.551,-0.018 0.64,0 0.666,0.134c0.018,0.089 0.018,1.544 -0.008,3.241l-0.045,3.081l-0.64,0.026c-0.355,0.018 -0.649,0.018 -0.658,0c0,-0.017 -0.035,-0.455 -0.071,-0.973c-0.106,-1.366 -0.311,-1.607 -1.449,-1.67l-0.693,-0.044l0,1.714c0,2.402 0.053,2.5 1.333,2.581l0.809,0.044l-0.026,0.679l-0.027,0.679l-0.889,0.053c-1.689,0.107 -5.6,0.09 -5.716,-0.027c-0.124,-0.125 -0.142,-0.857 -0.026,-1.169c0.08,-0.197 0.142,-0.224 0.809,-0.259c0.64,-0.036 0.755,-0.072 0.96,-0.286l0.24,-0.232l0.026,-4.197l0.027,-4.197l-0.222,-0.223c-0.205,-0.205 -0.294,-0.223 -0.934,-0.223c-0.391,0 -0.737,-0.036 -0.764,-0.09c-0.089,-0.151 -0.16,-0.955 -0.098,-1.196l0.054,-0.232l5.635,0c4.436,0 5.645,0.026 5.68,0.107l0,0Z"/></svg>