<?xml version="1.0" encoding="UTF-8" standalone="no"?>
<!DOCTYPE svg PUBLIC "-//W3C//DTD SVG 1.1//EN" "http://www.w3.org/Graphics/SVG/1.1/DTD/svg11.dtd">
<svg width="100%" height="100%" viewBox="0 0 512 512" version="1.1" xmlns="http://www.w3.org/2000/svg" xmlns:xlink="http://www.w3.org/1999/xlink" xml:space="preserve" xmlns:serif="http://www.serif.com/" style="fill-rule:evenodd;clip-rule:evenodd;stroke-linejoin:round;stroke-miterlimit:2;">
    <g>
        <g transform="matrix(0.247191,0,0,0.24329,2.99772,36.4609)">
            <path d="M1024,886.81L768,1330.22L1024,1773.62L1280,1330.22L1024,886.81Z" style="fill-opacity:0.8;fill-rule:nonzero;"/>
        </g>
        <g transform="matrix(0.247191,0,0,0.24329,2.99772,36.4609)">
            <path d="M1280,443.41L1024,886.81L1280,1330.22L1536,886.81L1280,443.41Z" style="fill-opacity:0.6;fill-rule:nonzero;"/>
        </g>
        <g transform="matrix(0.247191,0,0,0.24329,2.99772,36.4609)">
            <path d="M768,443.41L512,886.81L768,1330.22L1024,886.81L768,443.41Z" style="fill-opacity:0.6;fill-rule:nonzero;"/>
        </g>
        <g transform="matrix(0.247191,0,0,0.24329,2.99772,36.4609)">
            <path d="M1536,0L1280,443.41L1536,886.81L1792,443.41L1536,0Z" style="fill-opacity:0.45;fill-rule:nonzero;"/>
        </g>
        <g transform="matrix(0.247191,0,0,0.24329,2.99772,36.4609)">
            <path d="M1152,221.7L896,221.7L768,443.41L1024,886.81L1280,443.41L1152,221.7Z" style="fill-opacity:0.45;fill-rule:nonzero;"/>
        </g>
        <g transform="matrix(0.247191,0,0,0.24329,2.99772,36.4609)">
            <path d="M512,0L256,443.41L512,886.81L768,443.41L512,0Z" style="fill-opacity:0.45;fill-rule:nonzero;"/>
        </g>
        <g transform="matrix(0.247191,0,0,0.24329,2.99772,36.4609)">
            <path d="M1792,443.4L2048,0L1536,0L1792,443.4Z" style="fill-opacity:0.3;fill-rule:nonzero;"/>
        </g>
        <g transform="matrix(0.247191,0,0,0.24329,2.99772,36.4609)">
            <path d="M256,443.4L512,0L0,0L256,443.4Z" style="fill-opacity:0.3;fill-rule:nonzero;"/>
        </g>
    </g>
</svg>
