<svg width="100%" height="100%" viewBox="0 0 16 16" version="1.1" xmlns="http://www.w3.org/2000/svg" xmlns:xlink="http://www.w3.org/1999/xlink" xml:space="preserve" xmlns:serif="http://www.serif.com/" style="fill-rule:evenodd;clip-rule:evenodd;stroke-linejoin:round;stroke-miterlimit:2;">
   <defs>
     <style>
       .i-color {
         fill: #000;
         fill-rule: evenodd;
       }
     </style>
   </defs>
    <g id="path34" transform="matrix(0.941816,0,0,0.874952,0.917004,1.44783)">
        <path class="i-color" d="M13.283,1.944C14.208,3.425 14.046,5.276 13.013,6.566C13.863,8.373 13.246,10.571 11.51,11.656L7.27,14.306C5.397,15.476 2.929,14.907 1.758,13.033C0.833,11.552 0.995,9.701 2.028,8.411C1.178,6.604 1.795,4.406 3.531,3.321L7.771,0.672C9.644,-0.499 12.112,0.071 13.283,1.944ZM8.301,1.52C9.706,0.642 11.557,1.069 12.435,2.474C13.065,3.482 13.023,4.719 12.43,5.663C11.805,4.93 10.952,4.468 10.045,4.318L10.769,3.865L10.239,3.017L5.151,6.196L5.681,7.044L7.801,5.72C9.206,4.842 11.057,5.269 11.935,6.674C12.813,8.079 12.385,9.93 10.98,10.808L6.74,13.458C5.335,14.336 3.484,13.908 2.606,12.503C1.977,11.496 2.018,10.258 2.611,9.315C3.237,10.047 4.089,10.509 4.997,10.66L4.272,11.112L4.802,11.96L9.89,8.781L9.361,7.933L7.24,9.258C5.835,10.136 3.984,9.708 3.106,8.303C2.228,6.898 2.656,5.047 4.061,4.169L8.301,1.52Z"/>
    </g>
</svg>
