<svg xmlns="http://www.w3.org/2000/svg" width="16" height="16" viewBox="0 0 16 16">
  <defs>
    <style>
      .i-color {
        fill: #000;
        fill-rule: evenodd;
      }
    </style>
  </defs>
  <g transform="matrix(1,0,0,1,0.00266743,-0.0147194)">
      <path id="file_type_java.svg" class="i-color" d="M6.23,10.717C5.93,10.8 5.392,11 5.538,11.4C5.888,11.772 6.373,11.989 6.884,12C8.086,12.171 9.311,11.985 10.408,11.465C10.034,11.346 9.683,11.123 9.338,10.986C8.327,11.232 7.273,11.24 6.259,11.009C6.31,10.889 6.769,10.609 6.386,10.696L6.23,10.708L6.23,10.717ZM5.908,9.246C5.526,9.279 5.207,9.559 5.126,9.934C5.399,10.282 5.818,10.486 6.26,10.486C7.755,10.68 9.274,10.535 10.705,10.063C10.375,9.973 10.071,9.805 9.819,9.574C8.549,9.872 7.232,9.909 5.948,9.684C5.77,9.59 6.13,9.413 6.15,9.318C6.508,9.01 6.025,9.273 5.907,9.246L5.908,9.246ZM10.945,3.064C9.832,3.292 8.833,3.901 8.121,4.787C7.759,5.513 7.923,6.397 8.521,6.945C8.653,7.099 8.726,7.295 8.726,7.497C8.726,7.771 8.593,8.028 8.37,8.187C7.981,8.53 8.43,8.47 8.656,8.305C9.309,8.019 9.693,7.325 9.588,6.62C9.4,6.081 8.707,5.633 8.953,5C9.43,4.132 10.425,3.751 11.174,3.161C11.462,2.967 11.057,3.088 10.946,3.061L10.945,3.064ZM4.851,11.688C4.198,11.71 3.572,11.957 3.081,12.388C2.852,12.659 3.181,12.969 3.451,13C5.8,13.46 8.212,13.492 10.572,13.095C11.227,13.031 11.849,12.778 12.361,12.365C12.568,12.012 12.081,11.753 11.796,11.731C11.843,11.872 11.91,12.005 11.996,12.126C11.644,12.376 11.227,12.519 10.796,12.538C8.794,12.834 6.759,12.844 4.754,12.567C4.525,12.534 4.304,12.463 4.098,12.357C4.566,12.064 5.126,11.952 5.67,12.044C5.455,11.819 5.156,11.692 4.845,11.694L4.851,11.688ZM6.343,7.714C5.566,7.736 4.81,7.965 4.151,8.377C3.925,8.592 4.207,8.872 4.441,8.9C5.81,9.174 7.214,9.227 8.6,9.059C9.249,9.035 9.887,8.893 10.485,8.64C10.722,8.536 10.942,8.399 11.141,8.234C10.404,8.19 9.683,8.434 8.95,8.46C7.757,8.605 6.55,8.6 5.358,8.443C5.173,8.4 5.5,8.3 5.551,8.267C5.976,8.077 6.445,8.034 6.851,7.803C6.688,7.743 6.515,7.713 6.341,7.714L6.343,7.714ZM11.706,7.587C11.315,7.568 10.95,7.791 10.789,8.147C10.608,8.395 11.089,8.033 11.255,8.037C11.331,8.009 11.412,7.995 11.493,7.995C11.877,7.995 12.193,8.311 12.193,8.695C12.193,8.772 12.18,8.849 12.155,8.922C11.807,9.498 11.299,9.961 10.694,10.255C10.263,10.61 10.401,10.627 10.86,10.455C11.773,10.32 12.562,9.738 12.96,8.905C12.972,8.838 12.978,8.771 12.978,8.703C12.978,8.084 12.469,7.575 11.85,7.575C11.802,7.575 11.754,7.578 11.706,7.584L11.706,7.587ZM9.2,0.464C9.412,1.309 9.103,2.204 8.414,2.738C7.688,3.463 6.645,3.959 6.214,4.938C5.931,5.774 6.587,6.538 7.114,7.108C7.467,7.488 7.851,7.838 8.262,8.154C8.07,7.173 6.986,6.541 7.083,5.486C7.277,4.473 8.331,4.029 8.936,3.3C9.681,2.648 9.954,1.601 9.622,0.668C9.478,0.424 9.302,0.199 9.1,0L9.2,0.463L9.2,0.464ZM12.767,12.55C12.244,12.934 11.63,13.176 10.985,13.25C8.834,13.629 6.635,13.656 4.476,13.328C5.141,13.786 5.94,14.011 6.746,13.967C8.516,14.128 10.3,13.978 12.019,13.525C12.583,13.443 13.001,12.946 12.985,12.376C13.025,12.013 12.843,12.491 12.766,12.554L12.767,12.55Z"/>
  </g>
</svg>
