<svg xmlns="http://www.w3.org/2000/svg" xmlns:xlink="http://www.w3.org/1999/xlink" xmlns:serif="http://www.serif.com/" width="100%" height="100%" viewBox="0 0 16 16" version="1.1" xml:space="preserve" style="fill-rule:evenodd;clip-rule:evenodd;stroke-linejoin:round;stroke-miterlimit:2;">
	<defs>
	  <style>
	    .i-color {
	      fill: #000;
	      fill-rule: evenodd;
	    }
	  </style>
	</defs>
	<path id="file_type_pem.svg" class="i-color" d="M8.876,14l-5.876,0c-0.549,0 -1,-0.451 -1,-1l0,-12c0,-0.549 0.451,-1 1,-1l7.5,0l3.5,3.5l0,1.938c-0.312,-0.166 -0.649,-0.289 -1,-0.362l0,-1.076l-3,-3l-7,0l0,12l6.076,0l-0.2,1Zm-0.205,-4c0.124,0.357 0.301,0.695 0.525,1l-5.196,0l0,-1l4.671,-0Zm-0.128,-2c-0.052,0.247 -0.079,0.503 -0.079,0.765l0,0.004c-0,0.077 0.002,0.155 0.007,0.231l-4.472,-0l0,-1l4.544,0Zm1.14,-2c-0.311,0.287 -0.574,0.625 -0.775,1l-4.908,0l0,-1l5.683,0Zm-1.683,-2l-4,0l0,-1l4,0l0,1Zm1.464,4.768l-0,-0.003c0,-1.518 1.249,-2.768 2.768,-2.768c1.063,0 2.036,0.613 2.496,1.571c0.558,1.16 0.236,2.564 -0.772,3.366l0.689,3.442c0.007,0.033 0.01,0.068 0.01,0.102c0,0.285 -0.234,0.519 -0.519,0.519c-0.06,0 -0.12,-0.011 -0.177,-0.031l-1.667,-0.606c-0.038,-0.014 -0.08,-0.014 -0.118,0l-1.667,0.606c-0.057,0.021 -0.117,0.031 -0.177,0.031c-0.285,0 -0.519,-0.234 -0.519,-0.519c0,-0.034 0.003,-0.068 0.01,-0.102l0.688,-3.442c-0.66,-0.525 -1.045,-1.323 -1.044,-2.166Zm2.769,-1.73c-0.949,0 -1.73,0.781 -1.73,1.73c0,0.949 0.781,1.73 1.73,1.73c0.949,0 1.73,-0.781 1.73,-1.73c0,-0.949 -0.781,-1.73 -1.73,-1.73Zm0,4.499c-0.258,0 -0.516,-0.035 -0.764,-0.107l-0.449,2.245l0.799,-0.291c0.267,-0.097 0.561,-0.097 0.828,0l0.799,0.291l-0.449,-2.245c-0.248,0.071 -0.506,0.107 -0.764,0.107Z"/>
</svg>
