<svg width="100%" height="100%" viewBox="0 0 16 16" version="1.1" xmlns="http://www.w3.org/2000/svg" xmlns:xlink="http://www.w3.org/1999/xlink" xml:space="preserve" xmlns:serif="http://www.serif.com/" style="fill-rule:evenodd;clip-rule:evenodd;stroke-linejoin:round;stroke-miterlimit:2;">
  <defs>
    <style>
      .i-color {
        fill: #000;
        fill-rule: evenodd;
      }
    </style>
  </defs>
    <path id="file_type_diff.svg" class="i-color" d="M14,4.5L14,14C14,14.552 13.552,15 13,15L3,15C2.448,15 2,14.552 2,14L2,2C2,1.448 2.448,1 3,1L10.5,1L14,4.5ZM13,5L10,2L3,2L3,14L13,14L13,5ZM10.837,5L10.837,6.5L5.283,6.5L5.283,5L10.837,5ZM7.234,7.546L8.885,7.546L8.885,9.498L10.837,9.498L10.837,11.048L8.886,11.048L8.886,12.999L7.234,12.999L7.234,11.049L5.283,11.049L5.283,9.498L7.234,9.498L7.234,7.546Z"/>
</svg>
