<svg xmlns="http://www.w3.org/2000/svg" width="16" height="16" viewBox="0 0 16 16">
  <defs>
    <style>
      .i-color {
        fill: #000;
        fill-rule: evenodd;
      }
    </style>
  </defs>

<path id="file_type_modern-fortran.svg" class="i-color" d="M4.383777618408203,0.052394548431038857 c-3.267624616622925,0.20667561888694763 -4.133633613586426,0.6469845771789551 -4.633598804473877,2.3902485370635986 c-0.12499109655618668,0.44030892848968506 -0.1428469568490982,1.1681666374206543 -0.1428469568490982,5.643143653869629 c0,4.474976539611816 0.017855869606137276,5.202834606170654 0.1428469568490982,5.643143653869629 c0.4374687969684601,1.5186165571212769 1.1338478326797485,2.012840986251831 3.2586963176727295,2.2824180126190186 c1.2856227159500122,0.16174614429473877 7.981575012207031,0.16174614429473877 9.267197608947754,0 c2.1248483657836914,-0.26957687735557556 2.821227550506592,-0.7638012766838074 3.2586963176727295,-2.2824180126190186 c0.12499109655618668,-0.44030892848968506 0.1428469568490982,-1.1681666374206543 0.1428469568490982,-5.643143653869629 c0,-4.474976539611816 -0.017855869606137276,-5.202834606170654 -0.1428469568490982,-5.643143653869629 c-0.4285408854484558,-1.482672929763794 -1.1427756547927856,-2.003854990005493 -3.115849018096924,-2.2644460201263428 c-0.6963788866996765,-0.09884486347436905 -6.954861640930176,-0.18870383501052856 -8.035141944885254,-0.12580256164073944 zm9.356474876403809,2.0308127403259277 c0.04463967680931091,0.1437743455171585 -0.026783805340528488,4.654694557189941 -0.08035141974687576,4.816440105438232 c-0.026783805340528488,0.08087307214736938 -0.2142704427242279,0.10783076286315918 -0.6785230040550232,0.08985897153615952 l-0.651739239692688,-0.026957690715789795 l-0.0714234784245491,-0.5840833187103271 c-0.17855870723724365,-1.563546061515808 -0.37497326731681824,-2.129657745361328 -0.8660096526145935,-2.543009042739868 c-0.15177488327026367,-0.13478843867778778 -0.41961294412612915,-0.26957687735557556 -0.6070995330810547,-0.3055204749107361 c-0.41961294412612915,-0.08985897153615952 -3.740804672241211,-0.08087307214736938 -3.8300843238830566,0.008985896594822407 c-0.04463967680931091,0.03594358637928963 -0.08035141974687576,0.871631920337677 -0.09820728749036789,1.860080599784851 l-0.026783805340528488,1.7881932258605957 l0.6070995330810547,0 c1.1517034769058228,0 1.5445326566696167,-0.37740767002105713 1.6248842477798462,-1.5905038118362427 l0.053567610681056976,-0.7907589077949524 l0.6338834166526794,-0.026957690715789795 c0.5535320043563843,-0.017971793189644814 0.6428113579750061,0 0.6695951819419861,0.13478843867778778 c0.017855869606137276,0.08985897153615952 0.017855869606137276,1.5545600652694702 -0.008927934803068638,3.261880397796631 l-0.04463967680931091,3.1001338958740234 l-0.6428113579750061,0.026957690715789795 c-0.3571174144744873,0.017971793189644814 -0.651739239692688,0.017971793189644814 -0.6606673002243042,0 c0,-0.017971793189644814 -0.03571173921227455,-0.4582807719707489 -0.0714234784245491,-0.9794628024101257 c-0.10713522136211395,-1.3748422861099243 -0.312477707862854,-1.6174615621566772 -1.4552534818649292,-1.6803628206253052 l-0.6963788866996765,-0.04492948576807976 l0,1.7252922058105469 c0,2.417206048965454 0.053567610681056976,2.5160510540008545 1.3391903638839722,2.596924066543579 l0.8124421238899231,0.04492948576807976 l-0.026783805340528488,0.6829280853271484 l-0.026783805340528488,0.6829280853271484 l-0.8927934765815735,0.05391538143157959 c-1.69630765914917,0.10783076286315918 -5.624599456787109,0.08985897153615952 -5.740662097930908,-0.026957690715789795 c-0.12499109655618668,-0.12580256164073944 -0.1428469568490982,-0.8626461029052734 -0.026783805340528488,-1.177152395248413 c0.08035141974687576,-0.1976897269487381 0.1428469568490982,-0.2246474176645279 0.8124421238899231,-0.2605910301208496 c0.6428113579750061,-0.03594358637928963 0.7588745355606079,-0.07188717275857925 0.9642170071601868,-0.287548691034317 l0.2410542517900467,-0.23363333940505981 l0.026783805340528488,-4.223371505737305 l0.026783805340528488,-4.223371505737305 l-0.22319836914539337,-0.2246474176645279 c-0.20534250140190125,-0.20667561888694763 -0.29462188482284546,-0.2246474176645279 -0.9374331831932068,-0.2246474176645279 c-0.39282914996147156,0 -0.7410187125205994,-0.03594358637928963 -0.7678024768829346,-0.08985897153615952 c-0.08927935361862183,-0.15276023745536804 -0.16070283949375153,-0.9614909887313843 -0.09820728749036789,-1.204110026359558 l0.053567610681056976,-0.23363333940505981 l5.660310745239258,0 c4.455039978027344,0 5.669239044189453,0.026957690715789795 5.704951286315918,0.10783076286315918 z"/>
</svg>
