<svg xmlns="http://www.w3.org/2000/svg" width="16" height="16" viewBox="0 0 16 16">
  <defs>
    <style>
      .i-stroke {
        stroke: #000;
        stroke-width: 1.5px;
        fill: none;
      }
      .i-fill {
        fill: #000;
        fill-rule: evenodd;
      }
    </style>
  </defs>
  <g id="file_type_graphviz.svg">
    <path class="i-stroke" d="M1.75,12a2.25,2.25 0 1,0 4.5,0a2.25,2.25 0 1,0 -4.5,0,M5.75,4a2.25,2.25 0 1,0 4.5,0a2.25,2.25 0 1,0 -4.5,0,M9.75,12a2.25,2.25 0 1,0 4.5,0a2.25,2.25 0 1,0 -4.5,0" />
    <rect class="i-fill" transform="translate(5.972670, 7.955427) rotate(26.000000) translate(-5.972670, -7.955427) " x="5.22475369" y="5.45542679" width="1.49583294" height="5" />
    <rect class="i-fill" transform="translate(10.027330, 7.955427) rotate(-26.000000) translate(-10.027330, -7.955427) " x="9.27941337" y="5.45542679" width="1.49583294" height="5" />
  </g>
</svg>
