<svg xmlns="http://www.w3.org/2000/svg" width="16" height="16" viewBox="0 0 16 16">
  <defs>
    <style>
      .i-color {
        fill: #000;
        fill-rule: evenodd;
      }
    </style>
  </defs>
  <path id="file_type_pdf.svg" class="i-color" d="M7.177,1.277c0.061,0,0.123-0.023,0.169-0.07l0.389-0.389v2.216
	c0,0.132,0.107,0.239,0.239,0.239s0.239-0.107,0.239-0.239V0.818l0.389,0.389c0.047,0.047,0.108,0.07,0.169,0.07
	s0.123-0.023,0.169-0.07c0.094-0.093,0.094-0.245,0-0.339L8.145,0.07C8.122,0.048,8.096,0.03,8.066,0.018
	c-0.001,0-0.002-0.001-0.004-0.001C8.035,0.006,8.006,0,7.975,0s-0.06,0.006-0.087,0.017c-0.001,0-0.002,0.001-0.004,0.001
	C7.854,0.03,7.828,0.048,7.805,0.07L7.007,0.868c-0.094,0.093-0.094,0.245,0,0.339C7.054,1.254,7.115,1.277,7.177,1.277z
	 M3.473,10.405l-1.87,0.983l0.146-0.573c0.033-0.128-0.045-0.259-0.173-0.291c-0.129-0.032-0.258,0.045-0.291,0.173l-0.278,1.094
	c-0.001,0.005-0.001,0.01-0.002,0.015C1.003,11.815,1.001,11.823,1,11.832c0,0.007,0,0.015,0,0.023c0,0.008,0,0.016,0.001,0.023
	c0.001,0.008,0.003,0.016,0.004,0.023c0.002,0.007,0.003,0.015,0.006,0.022c0.003,0.008,0.006,0.016,0.01,0.024
	c0.002,0.005,0.003,0.01,0.006,0.014c0.001,0.001,0.002,0.003,0.003,0.004c0.001,0.002,0.002,0.005,0.003,0.007
	C1.042,11.987,1.052,12,1.064,12.013c0.003,0.003,0.006,0.006,0.009,0.009c0.011,0.011,0.023,0.02,0.036,0.029
	c0.004,0.003,0.009,0.006,0.014,0.008c0.011,0.006,0.022,0.011,0.034,0.015c0.004,0.002,0.008,0.003,0.013,0.004
	c0.002,0.001,0.004,0.002,0.007,0.003c0.001,0,0.002,0.001,0.003,0.001l1.094,0.278c0.02,0.005,0.04,0.007,0.059,0.007
	c0.107,0,0.204-0.072,0.232-0.18c0.033-0.128-0.045-0.258-0.173-0.291l-0.49-0.125l1.793-0.942c0.117-0.062,0.162-0.206,0.101-0.323
	C3.735,10.389,3.59,10.344,3.473,10.405z M15,11.839c0-0.003-0.001-0.006-0.001-0.009c-0.001-0.008-0.002-0.016-0.004-0.024
	c-0.001-0.005-0.001-0.01-0.002-0.015l-0.278-1.094c-0.033-0.128-0.163-0.205-0.291-0.173c-0.128,0.033-0.206,0.163-0.173,0.291
	l0.147,0.578l-1.922-0.989c-0.118-0.06-0.262-0.014-0.323,0.103c-0.061,0.118-0.014,0.262,0.103,0.323l1.833,0.943l-0.482,0.123
	c-0.128,0.033-0.206,0.163-0.173,0.291c0.028,0.108,0.125,0.18,0.232,0.18c0.019,0,0.039-0.002,0.059-0.007l1.094-0.278
	c0.001,0,0.002-0.001,0.003-0.001c0.003-0.001,0.005-0.002,0.007-0.003c0.017-0.005,0.032-0.012,0.047-0.02
	c0.004-0.002,0.008-0.005,0.013-0.008c0.014-0.009,0.027-0.019,0.039-0.031c0.002-0.002,0.005-0.004,0.007-0.007
	c0.014-0.015,0.025-0.031,0.034-0.049c0.001-0.002,0.002-0.003,0.003-0.004c0.002-0.004,0.003-0.009,0.005-0.013
	c0.004-0.008,0.007-0.016,0.01-0.024c0.002-0.007,0.004-0.014,0.005-0.021c0.002-0.008,0.003-0.016,0.004-0.024
	c0.001-0.008,0.001-0.015,0.001-0.023C14.999,11.849,15,11.844,15,11.839z M10.53,5.241L8.614,4.283v-0.69H7.336v0.69L5.42,5.241
	V5.189H4.143v1.277h0.399V9.18H4.143v1.277H5.42v-0.051l1.916,0.958v0.69h1.277v-0.69l1.916-0.958v0.051h1.277V9.181h-0.399V6.466
	h0.399V5.189H10.53V5.241z M7.336,4.818V4.87h1.277V4.818l1.916,0.958v0.103L8.614,6.837V6.786H7.336v0.052L5.42,5.879V5.776
	L7.336,4.818z M5.42,9.871v-0.69H5.021V6.466H5.42V6.415l1.916,0.958v0.69h0.399v2.714H7.336v0.051L5.42,9.871z M10.929,9.181H10.53
	v0.69l-1.916,0.958v-0.051h-0.4V8.063h0.399v-0.69l1.916-0.958v0.051h0.399L10.929,9.181L10.929,9.181z"/>
</svg>