<svg xmlns="http://www.w3.org/2000/svg" width="16" height="16" viewBox="0 0 16 16">
  <defs>
    <style>
      .i-color {
        fill: #000;
        fill-rule: evenodd;
      }
    </style>
  </defs>
  <path id="file_type_awk.svg" class="i-color" d="M13.475,14.8109C11.6026,13.9336 12.2323,7.7645,6.4469,4.4051,6.5964,3.0509,6.9549-.3209,3.3125,1.5547,2.7144,1.6233,1.6759,1.1962,1.1898,2.5359L1.1898,2.597C8.1124,2.037-.9065,5.5899,8.0224,13.7964,7.8225,13.8908 7.6612,13.6223,6.9667,13.85L6.9592,13.8586C6.0364,14.4668,7.995,14.2702,9.1852,14.5413,8.3219,14.7648,6.1875,13.932,5.8092,15.4229,6.2791,15.2246,6.3451,15.5992,6.3858,16 7.8493,15.2963,9.4236,14.851,11.0389,14.6839,11.6283,14.8366,13.2456,15.7819,13.7837,14.9791,13.7933,14.9143,13.6336,14.8854,13.475,14.8109Z"/>
</svg>
