<svg xmlns="http://www.w3.org/2000/svg" xmlns:xlink="http://www.w3.org/1999/xlink" xmlns:serif="http://www.serif.com/" width="100%" height="100%" viewBox="0 0 16 16" version="1.1" xml:space="preserve" style="fill-rule:evenodd;clip-rule:evenodd;stroke-linejoin:round;stroke-miterlimit:2;">
    <defs>
      <style>
        .i-color {
          fill: #000;
          fill-rule: evenodd;
        }
      </style>
    </defs>
    <path id="file_type_known_hosts.svg" class="i-color" d="M2.531,2l10.937,0c0.845,0 1.531,0.697 1.531,1.556l0,3.556c0,0.331 -0.101,0.637 -0.275,0.889c0.173,0.252 0.275,0.558 0.275,0.889l0,3.556c0,0.853 -0.691,1.556 -1.531,1.556l-10.937,0c-0.84,0 -1.531,-0.702 -1.531,-1.556l0,-3.556c0,-0.318 0.095,-0.628 0.275,-0.889c-0.179,-0.26 -0.276,-0.571 -0.275,-0.889l0,-3.556c0,-0.859 0.686,-1.556 1.531,-1.556Zm-0.219,1.556l0,3.556c0,0.123 0.098,0.222 0.219,0.222l10.937,0c0.12,0 0.219,-0.1 0.219,-0.222l0,-3.556c0,-0.122 -0.099,-0.222 -0.219,-0.222l-10.937,0c-0.12,0 -0.219,0.1 -0.219,0.222Zm0.219,5.111c-0.12,0 -0.219,0.1 -0.219,0.222l0,3.556c0,0.123 0.098,0.222 0.219,0.222l10.937,0c0.12,0 0.219,-0.1 0.219,-0.222l0,-3.556c0,-0.122 -0.099,-0.222 -0.219,-0.222l-10.937,0Zm4.594,-3.333c0,-0.365 0.297,-0.667 0.656,-0.667l3.937,0c0.36,0 0.656,0.301 0.656,0.667c0,0.365 -0.297,0.667 -0.656,0.667l-3.937,0c-0.36,0 -0.656,-0.301 -0.656,-0.667Zm0.656,4.667l3.937,0c0.36,0 0.656,0.301 0.656,0.667c0,0.365 -0.297,0.667 -0.656,0.667l-3.937,0c-0.36,0 -0.656,-0.301 -0.656,-0.667c0,-0.365 0.297,-0.667 0.656,-0.667Zm-4.156,-4.667c-0,-0.365 0.297,-0.667 0.656,-0.667l0.437,0c0.36,0 0.656,0.301 0.656,0.667c0,0.365 -0.297,0.667 -0.656,0.667l-0.437,0c-0.36,0 -0.656,-0.301 -0.656,-0.667Zm0.656,4.667l0.437,0c0.36,0 0.656,0.301 0.656,0.667c0,0.365 -0.297,0.667 -0.656,0.667l-0.437,0c-0.36,0 -0.656,-0.301 -0.656,-0.667c0,-0.365 0.297,-0.667 0.656,-0.667Z" style="fill-rule:nonzero;"/>
</svg>
