<svg xmlns="http://www.w3.org/2000/svg" xmlns:xlink="http://www.w3.org/1999/xlink" xmlns:serif="http://www.serif.com/" width="100%" height="100%" viewBox="0 0 16 16" version="1.1" xml:space="preserve" style="fill-rule:evenodd;clip-rule:evenodd;stroke-linejoin:round;stroke-miterlimit:2;">
	<defs>
	  <style>
	    .i-color {
	      fill: #000;
	      fill-rule: evenodd;
	    }
	  </style>
	</defs>
	<path id="file_type_public_key.svg" class="i-color" d="M10.195,1c2.638,0.006 4.805,2.178 4.805,4.816c0,2.642 -2.174,4.816 -4.816,4.816c-0.376,0 -0.751,-0.044 -1.117,-0.131l-0.816,0.816c-0.123,0.123 -0.29,0.193 -0.464,0.193l-0.657,0l0,0.657c-0,0.174 -0.069,0.341 -0.193,0.464l-0.438,0.438c-0.123,0.123 -0.29,0.193 -0.464,0.193l-0.657,0l0,0.657c-0,0.174 -0.069,0.341 -0.193,0.464l-0.438,0.438c-0.123,0.123 -0.29,0.193 -0.464,0.193l-1.751,0c-0.841,0 -1.533,-0.692 -1.533,-1.533l0,-1.751c0,-0.174 0.069,-0.341 0.193,-0.464l4.319,-4.319c-0.089,-0.369 -0.134,-0.748 -0.134,-1.128c0,-2.642 2.174,-4.817 4.817,-4.817c0,0 0.001,0 0.001,0Zm-3.503,4.817c-0.001,0.377 0.06,0.753 0.18,1.111c0.079,0.236 0.017,0.497 -0.159,0.673l-4.4,4.399l0,1.48c0,0.121 0.098,0.219 0.219,0.219l1.48,0l0.053,-0.053l0,-1.042c0,-0.36 0.296,-0.657 0.657,-0.657l1.042,0l0.053,-0.053l0,-1.042c0,-0.36 0.296,-0.657 0.657,-0.657l1.042,0l0.896,-0.898c0.176,-0.175 0.437,-0.237 0.673,-0.158c0.358,0.12 0.734,0.181 1.111,0.181c1.922,0 3.503,-1.581 3.503,-3.503c0,-1.922 -1.581,-3.503 -3.503,-3.503c-1.921,-0 -3.502,1.58 -3.503,3.502Zm3.941,0.438c-0.48,0 -0.876,-0.395 -0.876,-0.876c0,-0.48 0.395,-0.876 0.876,-0.876c0.48,0 0.876,0.395 0.876,0.876c0,0.48 -0.395,0.876 -0.876,0.876Z" style="fill-rule:nonzero;"/>
</svg>
