<svg width="100%" height="100%" viewBox="0 0 16 16" version="1.1" xmlns="http://www.w3.org/2000/svg" xmlns:xlink="http://www.w3.org/1999/xlink" xml:space="preserve" xmlns:serif="http://www.serif.com/" style="fill-rule:evenodd;clip-rule:evenodd;stroke-linejoin:round;stroke-miterlimit:2;">
    <defs>
      <style>
        .i-color {
          fill: #000;
          fill-rule: nonzero;
        }
      </style>
    </defs>
    <g transform="matrix(0.0848485,0,0,0.0848485,1,1)">
        <path class="i-color" d="M91.993,45C83.181,45 76,37.82 76,28.992C76,20.178 83.181,13 91.993,13C100.821,13 108,20.178 108,28.992C108,37.82 100.821,45 91.993,45M82.5,0C36.937,0 0,36.937 0,82.499C0,101.872 6.693,119.672 17.871,133.749C26.878,121.109 36.498,109.188 48.57,99.258C48.916,98.973 49.75,98.362 50.809,97.591C55.831,93.827 59.35,88.316 60.305,82.115L60.305,82.012C63.356,61.898 71.611,54.966 94.553,54.966C96.586,54.966 98.761,55.026 101.039,55.126C112.774,55.676 119.546,59.033 120.338,60.78C120.786,61.737 120.767,62.775 120.563,63.769L119.647,63.648C112.408,62.753 101.242,64.971 99.696,72.86C98.823,77.356 99.861,82.297 100.285,86.832C100.734,91.51 101.141,96.228 101.101,100.947C101.08,101.313 100.816,103.143 101.06,103.345C88.574,91.388 59.694,106.396 50.603,112.986C51.541,112.68 52.476,112.334 53.412,111.989C62.074,109.04 88.39,101.149 98.538,109.874C107.139,120.409 99.393,139.852 92.987,149.491C89.149,155.288 84.555,160.374 79.456,164.923C80.468,164.961 81.479,165 82.5,165C128.063,165 165,128.065 165,82.499C165,36.937 128.063,0 82.5,0"/>
    </g>
</svg>
