<svg width="100%" height="100%" viewBox="0 0 242 242" version="1.1" xmlns="http://www.w3.org/2000/svg" xmlns:xlink="http://www.w3.org/1999/xlink" xml:space="preserve" xmlns:serif="http://www.serif.com/" style="fill-rule:evenodd;clip-rule:evenodd;stroke-linejoin:round;stroke-miterlimit:2;">
	<defs>
	  <style>
	    .i-color {
	      fill: #000;
	      fill-rule: evenodd;
	    }
	  </style>
	</defs>
    <path class="i-color" d="M154.86,67.44L142.257,98.637L113.435,110.508L113.427,110.511L92.797,160.821L41.597,178.958L25.788,154.275L69.997,138.336L88.741,92.588L154.86,67.44ZM217.384,115.001L108.435,153.743L123.013,117.53L210.792,87.653L217.384,115.001Z" style="fill-rule:nonzero;"/>
    <path class="i-color" d="M121,201.652C164.421,201.652 201.466,164.378 201.466,120.763C201.466,71.967 162.251,40.123 121,40.123C79.75,40.123 40.065,72.367 40.065,121.143C40.065,167.548 77.58,201.652 121,201.652ZM121,225.835C182.874,225.835 226.087,176.539 226.087,121.143C224.537,64.926 182.874,15.941 121,15.941C59.126,15.941 15.882,66.966 15.882,121.143C15.882,184.197 66.418,225.835 121,225.835Z"/>
</svg>
