<svg width="242" height="242" viewBox="0 0 242 242" fill="none" xmlns="http://www.w3.org/2000/svg">
<path d="M70.3189 138.674L26.4356 154.496L41.7735 178.442L92.4735 160.482L113.427 110.511L142.257 98.6365L154.251 67.6917L89.0651 92.9205L70.3189 138.674Z" fill="white"/>
<path fill-rule="evenodd" clip-rule="evenodd" d="M154.794 67.6917L143.06 97.3113L112.826 110.779L92.7971 160.821L41.5974 178.958L25.7877 154.275L69.9968 138.336L88.7408 92.5877L154.794 67.6917ZM89.3894 93.2533L70.641 139.013L27.0835 154.717L41.9495 177.926L92.15 160.143L112.169 110.126L143.105 97.1966L153.561 68.4171L89.3894 93.2533Z" fill="white"/>
<path d="M112.924 152.358L216.881 114.728L210.49 88.2169L125.28 119.005L112.924 152.358Z" fill="white"/>
<path fill-rule="evenodd" clip-rule="evenodd" d="M210.792 87.6531L217.384 115.001L108.435 153.743L123.013 117.53L210.792 87.6531ZM125.61 119.34L113.643 151.643L216.377 114.456L210.187 88.7806L125.61 119.34Z" fill="white"/>
<path fill-rule="evenodd" clip-rule="evenodd" d="M121 201.652C164.421 201.652 201.466 164.378 201.466 120.763C201.466 71.9669 162.251 40.1233 121 40.1233C79.7497 40.1233 40.0651 72.3671 40.0651 121.143C40.0651 167.548 77.5795 201.652 121 201.652ZM121 225.835C182.874 225.835 226.087 176.539 226.087 121.143C224.537 64.9263 182.874 15.9405 121 15.9405C59.1263 15.9405 15.8823 66.9664 15.8823 121.143C15.8823 184.197 66.4182 225.835 121 225.835Z" fill="white"/>
</svg>
