<svg width="16px" height="16px" viewBox="0 0 16 16" xmlns="http://www.w3.org/2000/svg">
  <defs>
    <style>
      .i-color {
        fill: #000;
        fill-rule: evenodd;
      }
    </style>
  </defs>
  <path id="file_type_xml.svg" class="i-color" d="M16,11.111L0,11.111L0,4.889L16,4.889L16,11.111ZM5.917,10.013L4.617,8.044L5.805,6.195L4.518,6.195L3.862,7.37L3.185,6.195L1.886,6.195L3.083,8.023L1.766,10.013L3.083,10.013L3.839,8.786L4.591,10.013L5.917,10.013ZM10.576,10.013L10.576,6.195L9.029,6.195L8.432,8.518L7.833,6.195L6.281,6.195L6.281,10.013L7.248,10.013L7.248,7.102L7.992,10.013L8.865,10.013L9.612,7.102L9.612,10.013L10.576,10.013ZM12.505,9.073L12.505,6.195L11.326,6.195L11.326,10.013L14.346,10.013L14.346,9.073L12.505,9.073Z"/>
</svg>
