<svg width="100%" height="100%" viewBox="0 0 16 16" version="1.1" xmlns="http://www.w3.org/2000/svg" xmlns:xlink="http://www.w3.org/1999/xlink" xml:space="preserve" xmlns:serif="http://www.serif.com/" style="fill-rule:evenodd;clip-rule:evenodd;stroke-linejoin:round;stroke-miterlimit:2;">
    <defs>
      <style>
        .i-color {
          fill: #000;
          fill-rule: evenodd;
        }
      </style>
    </defs>
    <path id="file_type_tsx.svg" class="i-color" d="M15,0L15,14L1,14L1,0L15,0ZM14.125,0.875L1.875,0.875L1.875,13.125L14.125,13.125L14.125,0.875ZM9.803,7.527L10.804,7.527L11.66,9.116L12.518,7.527L13.499,7.527L12.214,9.955L13.607,12.509L12.624,12.509L11.66,10.794L10.696,12.509L9.714,12.509L11.107,9.955L9.803,7.527ZM7.089,7.633C8.146,7.246 8.958,7.741 9.196,8.312L8.429,8.812C8.315,8.607 8.073,8.398 7.794,8.383C7.541,8.369 7.304,8.501 7.297,8.844C7.312,9.343 7.969,9.343 8.756,9.842C9.333,10.208 9.44,10.487 9.494,10.991C9.533,11.365 9.463,12.011 8.727,12.338C7.927,12.693 6.506,12.564 6.017,11.49L6.821,11.027C7.223,11.79 8.265,11.788 8.47,11.286C8.669,10.795 8.067,10.602 7.318,10.271C6.994,10.103 6.49,9.838 6.339,9.193C6.225,8.706 6.327,7.97 7.089,7.633ZM5.818,8.53L4.571,8.53L4.571,12.509L3.572,12.509L3.572,8.53L2.325,8.53L2.325,7.53L5.818,7.53L5.818,8.53Z"/>
</svg>
